<?xml version='1.0' encoding='utf-8'?>
<svg xmlns="http://www.w3.org/2000/svg" enable-background="new 0 0 400 400" version="1.1" viewBox="0 0 400 400">
<rect width="400" height="400" fill="#fff"/>
<path d="m152.4 108.7c-0.8-0.7-3.9-1.9-6.8-1.2-1.7 0.4-3.4 1.2-5 2.2-3.7 2.2-7 4.8-10.2 7.8-3 2.9-6.7 5-10 7.5-2.6 2-5.3 4.1-7.6 6.5-5.4 5.7-10.6 11.6-15.8 17.5-3.2 3.6-6.4 7.2-9.5 10.9-1.1 1.3-2.1 2.8-2.9 4.3-4.4 8.4-9.1 16.6-11.9 25.7-1.5 4.7-3.4 9.4-3.9 14.3-1.1 10.2-3.3 20.5-1.3 30.8 0.7 3.7 0.2 7.3 0.7 10.9 0.6 4.1 1.6 8.3 2.9 12.2 2.1 6.2 4.3 12.4 6.5 18.6 1.9 5.2 4.1 10.8 4.9 12.4 0.5 1 1.1 2 1.7 2.9s1.4 2.1 2.3 2.3c1.5 0.3 1.7-1.3 2.1-2.4 1.1-2.8 2.2-5.6 3.4-8.4 0.8-1.8 1-3.5 0.2-5.3-2.4-5.3-4.2-10.8-7.8-15.5-0.6-0.8-0.9-1.9-1.3-2.9l-7.5-18c-0.4-0.9-0.6-1.8-0.7-2.8-0.3-3.4-0.4-6.9-0.6-10.3 0-0.7 0.1-1.5 0.3-2.2 1.5-4.9 2.7-10 4.5-14.8s4.2-9.4 6.4-14c1.2-2.5 2.7-4.7 5-6.5 1.9-1.5 2.9-4 4.7-5.7 6.7-6 12.3-13.3 20.2-17.9 1.1-0.6 1.7-1.9 2.6-2.8 2.8-2.9 5.7-5.8 8.5-8.7 3.7-3.9 7.4-7.8 11-11.8 0.8-0.9 1.3-2 2.2-2.8 7-6.2 10-14.9 14.4-22.8 0.8-1.4 0.9-2.9 0.7-4.4 0-2.4-1.6-4.9-2.4-5.6z"/>
<path d="m105.1 126.3c-2.3-0.4-4.7-0.6-7-0.3-1.5 0.2-2.9 0.5-4.4 0.9-2.4 0.6-4.5 1.4-4.8 1.6-0.2 0.3-0.5 0.7-0.5 0.9v0.5c-0.5 4.4 0.2 5.1 4.4 6.3 5 1.3 8.6-0.3 11.4-4.4 0.5-0.7 1.2-1.1 1.8-1.7 1.6-1.6 1.2-3.4-0.9-3.8z"/>
<path d="m134.5 158.7c-0.9 0-2.2 0.4-2.7 1-0.9 1.1-1.6 2.5-2.1 3.9-0.9 2.6-1.5 5.3-2.2 8-0.2 0.7-0.2 1.5-0.2 2.2-0.1 1.8 0.6 3.2 2.3 3.9 1 0.4 1.8 0.4 2.7 0.1 1.4-0.5 2.6-2.1 2.9-2.8 0.2-0.4 0.3-0.9 0.4-1.3 0.4-4.2 1.5-8.4 0.7-12.7-0.3-1.2-0.6-2.3-1.8-2.3z"/>
<path d="m143.3 117.1c-4-0.2-7.4 0.9-9.7 4.5-0.3 0.4-0.8 1.1-1.1 1-2.7-0.4-4 1.8-5.9 2.8-2.1 1.2-4.3 2.4-6.7 2.9-3.6 0.8-6.1 2.4-7.1 6.1-0.5 1.8-1.3 3.4-3.2 4.2-0.9 0.4-1.6 1.4-2.4 2.1-3 3.1-4.3 6.7-3.8 10.9 0.3 2.3-0.6 4-2.8 5-1 0.4-1.9 1-2.9 1.5-1.1 0.5-2.2 1-3.2 1.6-4.9 3-10.2 13.5-9.7 19.1 0.2 3 1.1 3.6 3.6 2.1 4.4-2.6 8.8-5.3 13.1-8.3 2.8-2 3.6-5.3 4.4-8.4 1.4-6 1.3-6 7.3-4.8 2.9 0.5 5.3-0.1 7.3-2.4 1.7-2 3.5-3.8 5.4-5.6 0.4-0.5 1-1 1.5-1.1 5.8-1 8.6-6.2 12.9-9.2 2.3-1.6 7.5-16.4 7.5-19.3-0.1-3.4-1.2-4.5-4.5-4.7z" fill="#fff"/>
<path d="m81.8 187.1c-1.2 0.8-2.9 3.2-4.2 5-0.7 1-1.5 2.1-2.2 3.3-0.4 0.6-0.6 1.4-0.8 2.1-0.5 2.3 0.5 5.4 2.1 6 2.4 1 3.8-0.7 5.2-2.3 3.1-3.5 4-9.6 1.9-13.7-0.4-0.9-0.9-1.2-2-0.4z" fill="#fff"/>
<path d="m80.9 267.5c-1.6-1.3-3.2-0.6-3.4 1.5-0.1 0.8 0.1 1.6 0.2 2.5 0.3 1.3 1.1 2.9 1.8 3.5s1.6 1.1 2.2 1.1c0.5 0 1.3-0.4 1.9-1 0.5-0.6 1.3-3 0.1-4.8-0.7-1.1-1.7-2-2.8-2.8z" fill="#fff"/>
<path d="m156.6 117c-0.4 0.5-0.8 1-1 1.6-3.6 9.3-9.1 17.3-15.9 24.5-12.7 13.4-25.2 27.1-39.4 39.1-4.2 3.6-8.1 7.8-11.7 12-8.1 9.5-11.9 20.8-13 33.1-0.6 6.4 0.3 12.6 1.8 18.8 0.2 0.9 0.5 1.9 0.9 2.7 3.1 5.6 6.1 11.3 9.3 16.8 1.5 2.7 3.2 5.3 5.1 7.8 2.3 3 3 6.1 1.4 9.6-1.8 3.8-3.5 7.6-5.1 11.5-0.1 0.3-0.1 0.6-0.2 0.9 0 0.5 0.3 0.7 0.6 0.5 0.4-0.2 0.8-0.4 0.9-0.3 0.1 0 1.7-3.3 3.3-7.5 1-2.5 1.9-5.1 2.6-7.7 0.5-2-0.8-4.8-1.8-6.9-4.8-9.2-10.3-18.2-14.5-27.6-2.9-6.3-2.7-13.5-1.5-20.3 2.2-12.5 6.6-24 16.1-33 7.2-6.8 14.6-13.4 21.5-20.4 10.2-10.4 20.5-20.9 30.1-31.9 5.2-5.9 9.5-12.8 11.3-20.8 0.1-0.6 0.2-1.2 0.2-1.9 0.1-1.2-0.4-1.4-1-0.6z"/>
<path d="m145.1 104.7c-0.3 0-0.6 0-0.9 0.1-3.1 1.2-6.4 2.1-9.2 3.8-11.9 7.4-23.1 15.7-33.1 25.7-3.6 3.6-12.3 2.8-15.5-1.4-1.2-1.6-1.3-3.1 0.2-4.6 2.2-2.2 4.7-3.9 7.9-4 3.4-0.1 6.8 0.3 10.2 0.5h1.1c0.6-0.1 0.7-0.5 0.3-1-0.3-0.3-0.6-0.6-1-0.7-5.5-1.9-14.9-2.3-20.5 3.7-2.5 2.6-2.7 5.1-0.4 8 2 2.6 4.9 3.7 8 4.5 3.1 0.7 3.1 1.1 1.3 3.7-7.8 10.9-16.9 21.2-20.7 34.4-3.1 10.9-5.2 22.1-7.7 33.2-0.5 2.4-1.1 4.8-1.5 7.3-0.1 0.4 0 0.7 0.2 1.1 0.2 0.6 0.7 0.7 1.1 0.3 0.3-0.3 0.5-0.5 0.6-0.9 0.3-1 0.4-2.1 0.6-3.2 2.4-12.2 4-24.6 8.4-36.4 3.9-10.3 10.4-19.1 16.7-27.9 8.5-11.8 19.3-21.3 30.8-30.1 2.9-2.2 5.8-4.5 8.9-6.5 4.5-2.9 9.1-5.6 13.7-8.4 0.3-0.2 0.5-0.4 0.7-0.6 0.5-0.2 0.3-0.5-0.2-0.6z"/>
<path d="m86.2 298.9c-0.7-1.6-1.8-3.1-2.5-4.7-3-7.3-5.9-14.7-9-22.1-4.4-10.5-6.2-21.7-8-32.8-0.6-3.9-1.1-7.9-1.7-11.8-0.1-0.3-0.2-0.7-0.4-1-0.3-0.5-0.8-0.5-1.2 0-0.2 0.4-0.4 0.7-0.4 1 0.2 4.6 0.5 9.2 1 13.8 1.5 16.1 6.9 31.2 13.2 45.9 0.7 1.7 2.4 3 3.3 4.6 1.5 2.8 2.7 5.8 4.1 8.6 0.1 0.3 0.3 0.6 0.5 0.8 0.3 0.4 0.8 0.7 1.1 0.6 0.2-0.1 0.4-0.9 0.3-1.7 0-0.3-0.1-0.8-0.3-1.2z"/>
<path d="m139.3 157.5c-0.2-0.4-0.6-0.4-1 0-0.2 0.3-0.4 0.6-0.4 0.9-0.9 5.7-0.2 11-2.7 16.5-0.6 1.3-1.3 2.5-2.6 3.1-1.4 0.7-3.2 0.3-4.4-0.8-0.6-0.5-1-1.2-1.3-1.9-0.5-1.2-0.3-4 0.3-6 0.3-1.3 0.6-2.5 0.1-3.7-0.3-0.8-2.6 1.8-2.8 2.1-0.7 1.3-0.9 3-0.9 4.5-0.1 3.4 1.1 6.7 4.4 8.2 1.4 0.6 2.6 0.6 3.7 0.4 2.1-0.4 5.4-3.7 6.7-7.4 0.8-2.3 1.3-4.5 1.5-6.9 0.2-2.8-0.1-5.6-0.3-8.4-0.1 0-0.2-0.3-0.3-0.6z"/>
<path d="m110.5 149.5c-0.8 0.4-1.5 0.9-2.1 1.5-1.8 1.6-3.4 3.5-5.1 5.3-10.6 10.6-17.4 23.9-24.3 36.9-0.3 0.6-0.5 1.2-0.6 1.9-0.2 1.1 0.2 1.3 0.9 0.5 0.4-0.5 0.8-1 1.1-1.5 5.7-9.4 11.1-19.1 17.3-28.3 3.4-5 8.1-9.1 12.1-13.7 0.5-0.6 1-1.3 1.5-1.9 0.8-1.1 0.4-1.4-0.8-0.7z"/>
<path d="m154 103.5c-0.9-0.1-1.8 0.9-1.6 1.6 0.1 0.5 0.3 1 0.5 1.3 0.5 1 3.2 6 4.6 5.2 1.3-0.7-1.4-6.5-2.1-7.3-0.4-0.4-0.9-0.7-1.4-0.8z"/>
<path d="m288.1 80c-1.7-5.6-4.6-10.7-7.3-15.9-0.5-0.9-1.1-1.8-1.8-2.6-1.9-2.3-3.9-4.5-5.9-6.8-3.2-3.6-6.4-7.3-9.7-10.8-1.4-1.5-3.1-2.7-4.7-4-2-1.6-4.3-2.9-6.2-4.7-1.9-1.9-4-3.5-6.3-4.8-1-0.6-2-1.1-3.1-1.4-1.8-0.5-3.7 0.3-4.2 0.7-0.5 0.5-1.4 2-1.6 3.5-0.1 0.9 0 1.8 0.5 2.7 2.7 4.9 4.6 10.2 8.9 14.1 0.5 0.5 0.9 1.2 1.4 1.7 2.3 2.4 4.5 4.9 6.8 7.3 1.7 1.8 3.5 3.6 5.2 5.4 0.6 0.6 1 1.3 1.6 1.7 4.9 2.9 8.3 7.4 12.5 11.1 1.1 1 1.8 2.6 2.9 3.5 1.4 1.1 2.3 2.5 3.1 4 1.4 2.9 2.9 5.7 4 8.7s1.9 6.1 2.8 9.1c0.1 0.4 0.2 0.9 0.2 1.4-0.1 2.1-0.2 4.3-0.4 6.4 0 0.6-0.2 1.2-0.4 1.7-1.5 3.7-3.1 7.4-4.6 11.1-0.3 0.6-0.4 1.3-0.8 1.8-2.2 2.9-3.3 6.3-4.8 9.6-0.5 1.1-0.4 2.2 0.1 3.3 0.7 1.7 1.4 3.4 2.1 5.2 0.3 0.7 0.4 1.6 1.3 1.5 0.6-0.1 1.1-0.9 1.4-1.4 0.4-0.6 0.7-1.2 1-1.8 0.5-1 1.9-4.4 3.1-7.7 1.4-3.8 2.7-7.6 4-11.5 0.8-2.4 1.4-5 1.8-7.5 0.3-2.2 0-4.4 0.4-6.7 1.2-6.4-0.2-12.7-0.8-19-0.4-3-1.6-5.9-2.5-8.9z"/>
<path d="m278.5 42.7c0-0.2-0.1-0.4-0.3-0.6s-1.5-0.6-3-1l-2.7-0.6c-1.4-0.2-2.9-0.1-4.3 0.2-1.3 0.3-1.5 1.4-0.6 2.4 0.4 0.4 0.8 0.7 1.1 1.1 1.7 2.5 4 3.5 7 2.7 2.6-0.7 3-1.2 2.7-3.9 0.1-0.1 0.1-0.2 0.1-0.3z"/>
<path d="m253 63.8c-0.3-0.9-0.7-1.7-1.3-2.4-0.3-0.4-1.1-0.6-1.7-0.6-0.8 0-0.9 0.7-1.1 1.4-0.5 2.7 0.2 5.3 0.4 7.9 0 0.3 0.1 0.6 0.2 0.8 0.2 0.4 0.9 1.4 1.8 1.7 0.5 0.2 1.1 0.2 1.7 0 1-0.4 1.5-1.3 1.4-2.4 0-0.5 0-0.9-0.1-1.4-0.4-1.7-0.8-3.4-1.3-5z"/>
<path d="m274.6 61.4c-0.6-0.4-1.3-0.7-2-1l-1.8-0.9c-1.3-0.6-1.9-1.7-1.7-3.1 0.3-2.6-0.5-4.9-2.3-6.8-0.5-0.5-0.9-1.1-1.5-1.3-1.2-0.5-1.7-1.5-2-2.6-0.6-2.3-2.2-3.3-4.4-3.8-1.4-0.3-2.8-1.1-4.1-1.8-1.2-0.6-2-2-3.6-1.7-0.2 0-0.5-0.4-0.7-0.6-1.4-2.3-3.5-2.9-6-2.8-2.1 0.1-2.7 0.8-2.7 2.8 0 1.8 3.2 10.9 4.6 11.9 2.7 1.9 4.4 5.1 8 5.7 0.3 0.1 0.7 0.4 0.9 0.7 1.1 1.1 2.3 2.3 3.3 3.5 1.2 1.4 2.7 1.8 4.5 1.5 3.7-0.7 3.6-0.7 4.5 3 0.4 2 1 4 2.7 5.2 2.6 1.8 5.3 3.5 8.1 5.1 1.6 0.9 2.1 0.6 2.2-1.3 0.3-3.4-3-9.8-6-11.7z" fill="#fff"/>
<path d="m286.5 83.4c-0.5-0.7-0.9-1.4-1.4-2-0.8-1.1-1.8-2.6-2.6-3.1-0.6-0.5-1-0.3-1.3 0.3-1.3 2.5-0.7 6.3 1.2 8.4 0.8 0.9 1.7 2 3.2 1.4 1-0.4 1.6-2.3 1.3-3.7 0-0.4-0.2-0.9-0.4-1.3z" fill="#fff"/>
<path d="m283.1 128c-0.7 0.5-1.3 1.1-1.7 1.7-0.7 1.1-0.2 2.6 0.1 3 0.3 0.3 0.8 0.6 1.1 0.6s0.9-0.3 1.3-0.7 0.9-1.4 1.1-2.2c0.1-0.5 0.2-1 0.1-1.5 0-1.3-1-1.7-2-0.9z" fill="#fff"/>
<path d="m278.4 82.7c-2.2-2.6-4.6-5.2-7.2-7.4-8.7-7.4-16.5-15.8-24.3-24.1-4.2-4.4-7.6-9.4-9.8-15.1-0.1-0.4-0.4-0.7-0.6-1-0.4-0.5-0.7-0.4-0.7 0.2 0 0.4 0 0.8 0.1 1.1 1.1 4.9 3.8 9.2 7 12.8 5.8 6.8 12.1 13.3 18.4 19.8 4.3 4.4 8.9 8.4 13.3 12.6 5.9 5.6 8.6 12.7 9.9 20.4 0.7 4.2 0.8 8.7-0.9 12.6-2.6 5.8-6 11.4-9 17.1-0.7 1.3-1.5 3-1.1 4.3 0.4 1.6 1 3.2 1.6 4.8 1 2.6 2 4.7 2 4.6 0.1 0 0.3 0.1 0.6 0.2 0.2 0.1 0.4 0 0.4-0.3 0-0.2 0-0.4-0.1-0.5-1-2.4-2.1-4.7-3.2-7.1-1-2.2-0.6-4.1 0.9-5.9 1.2-1.5 2.2-3.2 3.2-4.8 2-3.4 3.9-6.9 5.8-10.4 0.3-0.5 0.4-1.1 0.6-1.7 0.9-3.8 1.5-7.7 1.1-11.6-0.7-7.8-3.1-14.8-8-20.6z"/>
<path d="m288 72.3c-2.3-8.2-8-14.5-12.8-21.2-1.2-1.6-1.1-1.9 0.8-2.3s3.7-1.1 4.9-2.8c1.4-1.8 1.3-3.4-0.3-5-3.5-3.8-9.2-3.5-12.6-2.3-0.2 0.1-0.4 0.3-0.6 0.5-0.3 0.3-0.2 0.6 0.2 0.6h0.7c2.1-0.1 4.2-0.4 6.3-0.3 1.9 0 3.5 1.1 4.9 2.5 0.9 0.9 0.9 1.8 0.1 2.8-1.9 2.5-7.3 3.1-9.6 0.8-6.1-6.1-13.1-11.3-20.4-15.9-1.7-1.1-3.8-1.6-5.7-2.4-0.2-0.1-0.4-0.1-0.6 0-0.3 0-0.4 0.2-0.2 0.5l0.4 0.4c2.8 1.7 5.7 3.4 8.5 5.2 1.9 1.2 3.7 2.6 5.5 4 7.1 5.4 13.8 11.3 19 18.6 3.9 5.4 7.9 10.9 10.3 17.2 2.8 7.2 3.7 14.9 5.2 22.5 0.1 0.7 0.1 1.3 0.4 2 0.1 0.2 0.2 0.4 0.4 0.5 0.2 0.3 0.6 0.2 0.7-0.2 0.1-0.2 0.1-0.5 0.1-0.7-0.2-1.5-0.6-3-0.9-4.5-1.4-6.9-2.7-13.8-4.7-20.5z"/>
<path d="m293.1 102.6c-0.1 0.2-0.2 0.4-0.2 0.6-0.4 2.4-0.7 4.9-1.1 7.3-1.1 6.9-2.2 13.8-4.9 20.3-1.9 4.5-3.7 9.1-5.6 13.6-0.4 1-1.1 1.9-1.5 2.9-0.1 0.3-0.2 0.6-0.2 0.9-0.1 0.5 0 0.9 0.2 1s0.4-0.1 0.6-0.4c0.1-0.2 0.2-0.3 0.3-0.5 0.8-1.8 1.6-3.6 2.5-5.3 0.6-1 1.6-1.8 2-2.9 3.9-9.1 7.3-18.4 8.2-28.4 0.3-2.8 0.5-5.7 0.6-8.5 0-0.2-0.1-0.4-0.2-0.6-0.2-0.3-0.5-0.3-0.7 0z"/>
<path d="m254.5 65.1c-0.3 0.7-0.2 1.5 0 2.3 0.3 1.2 0.5 2.9 0.2 3.7-0.2 0.5-0.5 0.9-0.8 1.2-0.7 0.7-1.8 0.9-2.7 0.5-0.8-0.4-1.2-1.2-1.6-1.9-1.6-3.4-1.1-6.7-1.7-10.2 0-0.2-0.1-0.4-0.3-0.6-0.2-0.3-0.5-0.3-0.6 0-0.1 0.2-0.2 0.3-0.2 0.5-0.1 1.7-0.3 3.5-0.2 5.2 0.1 1.4 0.4 2.8 0.9 4.2 0.8 2.3 2.8 4.3 4.1 4.6 0.7 0.1 1.5 0.1 2.3-0.3 2.1-0.9 2.8-3 2.7-5.1 0-0.9-0.1-2-0.6-2.8 0.1-0.1-1.3-1.7-1.5-1.3z"/>
<path d="m284.3 82.1c-4.3-8.1-8.4-16.3-15-22.8-1.1-1.1-2-2.3-3.2-3.3-0.4-0.4-0.8-0.6-1.3-0.9-0.8-0.5-1-0.3-0.5 0.4 0.3 0.4 0.6 0.8 0.9 1.2 2.5 2.8 5.4 5.4 7.5 8.5 3.8 5.7 7.1 11.6 10.7 17.5 0.2 0.3 0.4 0.6 0.7 0.9 0.4 0.5 0.7 0.4 0.5-0.3 0-0.4-0.1-0.9-0.3-1.2z"/>
<path d="m237.9 26.7c-0.3 0.1-0.6 0.2-0.9 0.5-0.4 0.5-2.1 4.1-1.3 4.5 0.9 0.5 2.5-2.6 2.9-3.2 0.1-0.2 0.2-0.5 0.3-0.8 0.2-0.5-0.4-1.1-1-1z"/>
<path d="m128.2 20c0.2 0.9 1 1.7 1.5 2.5 1.5 2.7 3 5.4 4.5 8 2 3.5 4.1 7 6.1 10.5 0.4 0.8 1.2 1.4 1.5 2.2 3 6.4 8.6 10.4 13.3 15.3 0.9 0.9 1.9 1.3 3 1.5 1.9 0.3 4-0.3 4.7-0.7s2.2-2.4 2.3-4.7c0.1-1.3-0.1-2.7-0.5-4.1-0.8-3.2-2-6.1-3.5-9-1.4-2.8-2.1-5.9-3.3-8.8-0.9-2.3-1.8-4.7-3.1-6.8-3-5.1-6.1-10.1-9.2-15.1-1.9-3.1-3.8-6.2-5.8-9.2-0.3-0.5-0.7-0.9-1-1.4h-20.1c0.4 0.5 0.7 1 1 1.6 2.8 5.9 6.9 11.5 8.6 18.2z"/>
<path d="m161.5 8.5c-0.1 0-0.2-0.1-0.3-0.1-3-1.3-3.7-1-5.5 1.8-2 3.3-1.7 6.3 0.7 9.2 0.4 0.5 0.6 1.1 0.9 1.7 0.8 1.5 2.2 1.6 3 0.1 0.8-1.6 1.5-3.3 1.7-5 0.2-1.1 0.2-2.2 0.3-3.4 0.1-1.9 0-3.6-0.2-3.8s-0.4-0.4-0.6-0.5z"/>
<path d="m128 30.9c-1.7-1.2-3.5-2.2-5.3-3.3-0.5-0.3-1-0.5-1.6-0.7-1.3-0.5-2.4-0.2-3.3 0.8-0.5 0.6-0.7 1.2-0.6 1.9 0.1 1.2 0.9 2.3 1.4 2.7l0.9 0.6c3 1.2 5.7 2.9 9 3.2 0.9 0.1 1.8 0.2 2-0.8 0.2-0.7 0.2-1.6-0.2-2.2-0.6-0.8-1.4-1.6-2.3-2.2z"/>
<path d="m132.6 13.7c4 2.3 4 2.2 1.9 6.3-1 2-1 3.8 0.2 5.8 1.1 1.6 2 3.4 2.9 5.1 0.2 0.4 0.5 0.9 0.5 1.3-0.5 4.4 2.7 7.5 3.9 11.3 0.7 2 10.2 9 12.3 9.6 2.4 0.7 3.4 0.1 4.3-2.2 1-2.9 1-5.6-1.2-8-0.3-0.3-0.6-0.8-0.5-1 0.9-1.8-0.4-3.2-0.8-4.8-0.4-1.8-0.8-3.6-0.7-5.4 0.2-2.8-0.4-4.9-2.9-6.4-1.2-0.7-2.1-1.6-2.3-3.2-0.1-0.7-0.7-1.4-1-2.2-1.6-2.8-3.9-4.5-7.1-5.1-1.7-0.3-2.8-1.3-3-3.1-0.1-0.8-0.3-1.6-0.4-2.4-0.2-0.9-0.2-1.8-0.5-2.6-0.5-2-2.3-4.4-4.4-6.5h-8.9c0.8 2.9 1.6 5.9 2.6 8.7 0.8 2.3 3 3.6 5.1 4.8z" fill="#fff"/>
<path d="m141.4 47.9c3.2 5 7.2 9.6 12.6 12.6 0.4 0.2 0.8 0.4 1.3 0.5 0.7 0.2 1-0.1 0.5-0.7-0.3-0.4-0.6-0.8-0.9-1-5.9-4.6-10.5-10.3-14.2-16.7-6.9-12.1-14.1-24-19.7-36.8-0.9-2-1.8-3.9-2.9-5.7h-3c3.3 6.5 6.3 13 9.8 19.4 5.3 9.5 10.6 19.1 16.5 28.4z"/>
<path d="m160.4 34.7c1 2.6 2 5.1 2.8 7.8 1.1 3.9 2.1 7.8 3.1 11.7l0.3 0.6c0.2 0.3 0.4 0.3 0.6 0 0.1-0.2 0.2-0.5 0.1-0.7-0.2-2.5-0.2-5.1-0.8-7.4-2.7-10.2-6.4-20.1-11.4-29.4-1.8-3.4 0.7-9.5 4.3-10.9 1.4-0.5 2.5-0.3 3.3 1.1 1.1 2.1 1.8 4.3 1.2 6.5-0.7 2.5-1.7 4.8-2.6 7.3-0.1 0.3-0.2 0.5-0.2 0.8-0.1 0.5 0.2 0.7 0.7 0.4 0.3-0.1 0.6-0.3 0.7-0.5 2.5-3.6 4.9-10.2 1.7-15.6-1.3-2.4-3.1-3-5.7-2-2.3 0.9-3.8 2.7-4.9 4.8-1.2 2.1-1.5 2-3 0.1-2.4-3.1-4.7-6.3-7.1-9.4h-2.9c1.6 2 3.1 4 4.7 6 6.7 8.8 11.2 18.6 15.1 28.8z"/>
<path d="m129.9 38c-3.9-1.9-7.9-2.5-11.3-5.5-0.8-0.7-1.5-1.5-1.7-2.5-0.2-1.2 0.5-2.4 1.5-3 0.5-0.3 1.1-0.5 1.7-0.5 1-0.1 2.9 0.7 4.2 1.5 0.8 0.5 1.7 1 2.6 0.8 0.6-0.1-0.8-2.3-0.9-2.4-0.8-0.8-2-1.3-3-1.6-2.4-0.8-5.1-0.7-6.9 1.4-0.7 0.9-1 1.7-1.1 2.6-0.2 1.6 1.5 4.7 3.9 6.4 1.5 1.1 3 1.9 4.6 2.5 2 0.8 4.1 1.1 6.1 1.6h0.7c0.4-0.1 0.4-0.4 0.2-0.7s-0.4-0.5-0.6-0.6z"/>
<path d="m140.6 19c0.3 0.5 0.7 1 1.1 1.5 0.6 0.8 0.9 0.6 0.7-0.4-0.2-0.6-0.3-1.3-0.6-1.9-0.8-1.7-1.8-3.2-2.7-4.9-2.7-4.9-6-9.3-9.6-13.4h-2.4c2.2 2.4 4.3 4.8 6.4 7.3 2.7 3.6 4.6 7.9 7.1 11.8z"/>
<path d="m165.3 59.9c-0.4 0-0.8 0-1.1 0.1-0.8 0.2-5 1-4.8 2.2 0.2 1.1 5 0.4 5.7 0.1 0.4-0.2 0.7-0.5 0.9-0.8 0.4-0.7-0.1-1.6-0.7-1.6z"/>
<path d="m121.2 384.3c-3.1-2.1-6.1-4.5-9.5-5.9-7.1-3-14.1-6.8-21.9-7.6-2.8-0.3-5.3-1.4-8-1.8-3.1-0.5-6.3-0.6-9.4-0.5-4.9 0.2-9.9 0.4-14.8 0.7-4.2 0.2-8.6 0.6-10 0.9-0.8 0.2-1.7 0.3-2.5 0.6-0.8 0.2-1.8 0.6-2.2 1.2-0.5 1 0.5 1.5 1.3 2 1.8 1.4 3.6 2.8 5.3 4.3 1.1 0.9 2.3 1.5 3.8 1.3 4.3-0.6 8.7-0.7 12.9-2.3 0.7-0.3 1.6-0.3 2.4-0.3 4.9-0.5 9.7-1 14.6-1.5 0.7-0.1 1.5 0 2.1 0.1 2.5 0.6 5.1 1.2 7.6 1.8 0.5 0.1 1.1 0.4 1.5 0.7 3.3 2.1 6.6 4.1 9.7 6.5s5.9 5.1 8.7 7.7c1.5 1.4 2.8 3 3.6 5 0.5 1.1 1.3 2.1 2.1 3.1h20.1c-0.5-0.6-0.9-1.1-1.4-1.6-5.1-5.3-10-10.4-16-14.4z"/>
<path d="m124.3 397.5c0.2 0.8 0.4 1.7 0.6 2.5h8.9c-2.3-2.3-5.1-4.2-7.3-4.6-2.2-0.5-2.8 0-2.2 2.1z" fill="#fff"/>
<path d="m118.6 387.3c-0.6-0.7-1.2-1.5-1.9-2.3-0.4-0.4-0.9-0.8-1.3-1-1.5-0.9-4-0.8-4.8 0.2-1.2 1.5-0.3 2.9 0.5 4.2 1.8 3 6.1 4.9 9.4 4.3 0.8-0.1 1.1-0.5 0.8-1.4-0.3-1-1.7-2.7-2.7-4z" fill="#fff"/>
<path d="m63.2 370.6c-0.6-0.2-1.2-0.3-1.8-0.4-1-0.1-2.3 0.2-2.9 0.5-0.6 0.4-1.2 0.9-1.3 1.3s0 1.1 0.3 1.6 1.8 1.6 3.4 1.1c0.9-0.3 1.8-0.8 2.6-1.4 1.3-0.8 1.1-2.1-0.3-2.7z" fill="#fff"/>
<path d="m93.7 378.2c-4.5-1.8-9.2-2.5-14-2.8-0.7 0-1.5-0.1-2.2 0.1-4.7 1-9.5 2-14.2 3.1-2.3 0.5-4.5 1.2-6.7 2-2.7 1-5 0.9-7.2-1-2.4-2.1-4.8-4.1-7.2-6.2l-0.6-0.3c-0.4-0.1-0.6 0-0.5 0.4 0.1 0.3 0.1 0.6 0 0.7s2 1.9 4.7 4c1.6 1.3 3.3 2.5 5 3.6 1.3 0.8 3.6 0.5 5.4 0.2 7.7-1.5 15.3-3.5 23.1-4.6 5.2-0.7 10.3 1 15 3.3 8.6 4.3 15.9 10 20.4 18.7l0.3 0.6h3c-1-1.8-2.1-3.6-3.3-5.3-5.1-7.9-12.4-13-21-16.5z"/>
<path d="m130.3 387c-7.2-4.6-14.9-8.5-22.3-12.7-1.6-0.9-3.2-1.8-4.9-2.6-0.2-0.1-0.5-0.1-0.8-0.1-0.5 0-0.7 0.4-0.5 0.7 0.1 0.2 0.3 0.5 0.5 0.6 0.7 0.5 1.4 0.7 2.2 1.1 8.3 4.3 16.9 8.2 24.4 13.9 4.6 3.5 8.3 7.7 11.9 12.1h2.9c-3.9-4.9-8.1-9.6-13.4-13z"/>
<path d="m96.2 369.1c-3.4-0.8-6.8-1.6-10.2-2.3-12-2.4-24-1.7-36-0.3-1.4 0.2-2.7 1.1-4.1 1.4-2.3 0.5-4.7 0.7-7.1 1.1-0.2 0-0.5 0.1-0.7 0.2-0.4 0.1-0.7 0.4-0.6 0.6 0 0.2 0.5 0.5 1.1 0.6 0.4 0.1 0.7 0.1 1.1 0.1 1.3-0.2 2.6-0.7 3.9-0.8 6-0.6 11.9-1.1 17.9-1.7 8.5-0.9 17 0.2 25.4 1.3 3 0.4 5.9 0.9 8.9 1.3 0.3 0 0.5 0 0.8-0.1 0.4-0.1 0.5-0.5 0.2-0.8-0.2-0.3-0.4-0.5-0.6-0.6z"/>
<path d="m117.5 387.9c-0.3-0.3-0.8-0.6-1.2-0.8-0.7-0.4-1-0.1-0.5 0.5 0.3 0.4 0.5 0.8 0.9 1.1 3.4 3.8 6.9 7.5 10.3 11.2h2.4c-3.8-4.1-7.9-8-11.9-12z"/>
<path d="m3.4 89.7c1.1-1.9 2.5-3.3 4.3-4.5 3.2-2.2 6.3-4.5 9.7-6.4s7-3.4 10.5-5.1c0.5-0.2 1.1-0.4 1.6-0.5 2.6-0.3 5.2-0.6 7.7-0.8 0.7-0.1 1.5 0 2.1 0.2 4.8 1.1 9.5 2.3 14.3 3.4 0.8 0.2 1.6 0.3 2.3 0.7 3.9 2.1 8.3 2.8 12.5 4 1.4 0.4 2.7 0 3.9-0.7 1.9-1.2 3.9-2.4 5.8-3.5 0.8-0.4 1.9-0.8 1.5-1.8-0.2-0.6-1.2-1.1-2-1.4l-2.4-0.9c-1.3-0.5-5.7-1.4-9.8-2.2-4.9-0.9-9.7-1.9-14.6-2.7-3.1-0.5-6.3-0.8-9.4-0.7-2.7 0-5.3 0.8-8.2 0.7-7.8-0.4-15.2 2.5-22.7 4.4-3.5 0.9-6.8 3-10.2 4.6-0.1 0.1-0.3 0.1-0.4 0.2v16.7c1.1-1.3 2.6-2.3 3.5-3.7z"/>
<path d="m9.9 81.9c1-1.2 2.1-2.4 1.1-4.1-0.7-1.1-3.1-1.5-4.7-0.9-0.5 0.2-1.1 0.5-1.5 0.8-0.7 0.7-1.5 1.4-2.2 2-0.8 0.8-1.9 1.8-2.6 2.7v2.6c3.3 1 7.6-0.3 9.9-3.1z" fill="#fff"/>
<path d="m64.4 71.5c-0.5-0.4-1.8-0.9-2.8-0.9-0.6 0-1.3 0-1.9 0.1-1.5 0.4-1.8 1.6-0.7 2.7 0.7 0.7 1.5 1.4 2.4 1.8 1.5 0.7 3.2-0.2 3.6-0.7 0.4-0.4 0.6-1.1 0.5-1.5 0-0.4-0.5-1-1.1-1.5z" fill="#fff"/>
<path d="m27.5 76.6c5-1.7 10.3-2.7 15.3-1.3 7.5 2.1 14.8 5.1 22.3 7.6 1.7 0.6 3.9 1.2 5.4 0.6 1.9-0.8 3.7-1.8 5.4-2.9 2.9-1.7 5.2-3.2 5.2-3.3s0-0.4 0.1-0.7-0.1-0.5-0.5-0.4c-0.2 0-0.5 0.1-0.6 0.2-2.7 1.7-5.3 3.4-7.9 5.2-2.4 1.6-4.8 1.5-7.3 0.1-2-1.1-4.2-2.1-6.4-2.9-4.5-1.7-9.1-3.3-13.6-5-0.7-0.2-1.4-0.3-2.1-0.4-4.8-0.4-9.5-0.3-14.2 0.9-9 2.3-17 6.4-23.1 13.5-1.9 2.2-3.7 4.4-5.4 6.8v4.9c1.6-2.4 3.2-4.7 4.8-7 5.5-8.2 13.5-12.9 22.6-15.9z"/>
<path d="m20.7 67.8c0.2-0.1 0.4-0.3 0.6-0.5 0.3-0.3 0.1-0.7-0.4-0.8-0.3-0.1-0.6-0.1-0.9 0-1.8 0.6-3.5 1.3-5.2 1.9-4.9 2-9.9 3.8-14.8 5.8v1.2c6-2.6 12.3-4.5 18.4-6.8 0.8-0.3 1.6-0.5 2.3-0.8z"/>
<path d="m84.7 72.7c-0.2-0.1-0.4-0.2-0.7-0.3-2.3-0.7-4.6-1.2-6.9-2-1.3-0.5-2.5-1.6-3.8-1.9-11.7-3-23.5-5.3-35.7-4.5-3.5 0.2-6.9 0.5-10.4 0.9-0.3 0-0.5 0.2-0.7 0.4-0.4 0.3-0.3 0.7 0.1 0.9 0.3 0.1 0.5 0.2 0.8 0.2 3 0 6-0.1 9-0.1 8.5 0 17 0.1 25.3 2.1 5.8 1.4 11.7 2.7 17.5 4.1 1.3 0.3 2.5 1 3.8 1.3 0.3 0.1 0.7 0.1 1.1 0.1 0.6 0 1.1-0.2 1.2-0.4 0-0.3-0.2-0.6-0.6-0.8z"/>
<path d="m0 118.9v4.2c0.4-0.6 0.6-1.2 0.6-1.7 0-0.9-0.1-1.7-0.6-2.5z"/>
<path d="m5.4 80.6c0.5-0.6 0.3-0.9-0.5-0.6-0.5 0.2-1 0.3-1.3 0.6l-3.6 2.7v1.9c1.5-1.2 2.9-2.4 4.4-3.6 0.3-0.3 0.6-0.7 1-1z"/>
<path d="m382.6 88.4c-1 0.8-2 1.7-2.8 2.6-2.4 2.7-4.7 5.5-7 8.4-3.7 4.6-7.5 9.1-11.2 13.8-1.5 2-2.7 4.2-3.9 6.4-1.5 2.8-2.7 5.8-4.4 8.3-1.9 2.7-3.4 5.5-4.7 8.5-0.5 1.3-0.9 2.6-1 4-0.2 2.3 1 4.5 1.7 4.9 0.6 0.5 2.7 1.4 4.5 1.3 1.1 0 2.2-0.3 3.2-1.1 5.3-4.1 11.4-7.4 15.3-13.3 0.5-0.7 1.3-1.3 1.8-2l7.5-9.6c1.9-2.4 3.7-4.9 5.5-7.3 0.6-0.8 1.4-1.4 1.8-2.3 2.6-6.4 7.3-11.4 11-17.1 0.1-0.1 0.2-0.3 0.3-0.4v-16.8c-6.5 3.2-12 7.5-17.6 11.7z"/>
<path d="m357.6 95.1c-0.1 0-0.2 0.1-0.3 0.1-0.2 0-0.5 0.2-0.7 0.5-0.2 0.2-0.5 1.9-0.7 3.8-0.1 1.1-0.2 2.3-0.2 3.4 0 1.7 0.5 3.5 1.1 5.2 0.6 1.6 2 1.6 3 0.2 0.4-0.5 0.6-1.1 1.1-1.6 2.7-2.6 3.5-5.4 1.9-9-1.4-3.1-2-3.6-5.2-2.6z"/>
<path d="m394.8 118.8c-0.5 0.1-1.1 0.2-1.6 0.4-1.9 0.8-3.9 1.6-5.7 2.6-1 0.5-2 1.2-2.7 2-0.4 0.5-0.6 1.5-0.5 2.1 0.2 1 1 1 1.9 1 3.3 0.1 6.3-1.2 9.4-2 0.3-0.1 0.7-0.3 1-0.4 0.5-0.3 1.5-1.3 1.7-2.5 0.1-0.7 0-1.3-0.4-2-0.7-1.1-1.8-1.5-3.1-1.2z"/>
<path d="m393.6 86.8c-4.3 0.3-11.4 5.5-13.1 9.5-0.3 0.8-0.5 1.7-0.8 2.5-0.2 0.8-0.5 1.5-0.7 2.3-0.5 1.7-1.7 2.6-3.4 2.6-3.2 0.1-5.8 1.5-7.7 4.1-0.5 0.7-1.1 1.3-1.3 2-0.4 1.5-1.5 2.3-2.7 2.9-2.7 1.2-3.5 3.2-3.7 6-0.1 1.8-0.8 3.6-1.4 5.3-0.6 1.5-2 2.8-1.4 4.7 0.1 0.2-0.4 0.7-0.6 1-2.4 2.1-2.9 4.8-2.2 7.7 0.5 2.5 1.5 3.1 3.9 2.8 2.2-0.3 12.6-5.9 13.5-7.8 1.7-3.6 5.3-6.3 5.4-10.7 0-0.4 0.4-0.9 0.7-1.3 1.2-1.6 2.3-3.2 3.5-4.6 1.5-1.7 1.7-3.6 1-5.7-1.5-4.3-1.5-4.3 2.8-6 2.3-0.9 4.6-1.9 5.8-4.2 1.7-3.5 3.2-7.1 4.7-10.7 0.5-2 0-2.6-2.3-2.4z" fill="#fff"/>
<path d="m399.3 83.5c-0.4 0.9-0.2 1.2 0.6 1.5h0.1v-2.5c-0.3 0.4-0.6 0.7-0.7 1z" fill="#fff"/>
<path d="m397.8 97.8c-7.3 11.9-16 22.8-24.5 33.9-4.5 5.9-9.9 10.9-16.3 14.7-0.4 0.2-0.7 0.6-1.1 0.9-0.5 0.6-0.3 0.9 0.4 0.8 0.5-0.1 0.9-0.2 1.4-0.4 5.7-2.3 10.3-6.3 14.1-10.8 7.1-8.4 13.7-17.3 20.3-26.1 2.7-3.7 5.3-7.5 7.9-11.4v-4.9c-0.8 1.1-1.5 2.2-2.2 3.3z"/>
<path d="m391 78c-9.4 4.4-15.9 12.3-23.1 19.4-1.7 1.7-2 1.7-2.9-0.5s-2.1-4.2-4.3-5.4c-2.4-1.3-4.3-0.9-5.9 1.3-3.9 4.9-2.4 11.8-0.4 15.7 0.1 0.3 0.4 0.5 0.7 0.6 0.4 0.3 0.8 0.1 0.7-0.3 0-0.3 0-0.6-0.1-0.8-0.5-2.5-1.2-5-1.6-7.5-0.3-2.3 0.7-4.4 2.1-6.3 0.9-1.3 2.1-1.4 3.4-0.7 3.4 1.9 5.1 8.3 2.8 11.3-6.2 8.6-11.2 17.9-15.2 27.6-1 2.3-1.3 4.8-1.8 7.3 0 0.2 0 0.5 0.1 0.7 0.1 0.4 0.4 0.4 0.6 0.1 0.1-0.2 0.3-0.4 0.3-0.6 1.6-3.7 3-7.5 4.7-11.2 1.1-2.5 2.5-4.9 3.8-7.3 5.2-9.6 11-18.7 18.8-26.4 5.8-5.8 11.6-11.6 18.8-15.7 2.5-1.4 5-2.6 7.7-3.7v-1.2c-3.2 1-6.2 2.3-9.2 3.6z"/>
<path d="m393.2 116.3c-1.1 0.2-2.3 0.5-3.2 1.2-0.2 0.1-1.8 2.1-1.2 2.3 0.9 0.2 1.8-0.1 2.7-0.5 1.4-0.6 3.4-1.1 4.4-0.9 0.6 0.1 1.1 0.4 1.6 0.8 0.9 0.7 1.4 2 1.1 3.2-0.3 1-1.2 1.7-2 2.3-3.8 2.5-7.8 2.6-12 4-0.2 0.1-0.4 0.2-0.6 0.4-0.3 0.3-0.3 0.6 0.1 0.7 0.2 0.1 0.4 0.1 0.7 0.1 2.1-0.2 4.2-0.3 6.3-0.8 1.7-0.4 3.3-1 4.9-1.9 1.8-1 3.3-2.6 4.1-4.1v-4.2c-0.1-0.1-0.1-0.2-0.2-0.3-1.5-2.3-4.2-2.8-6.7-2.3z"/>
<path d="m378.9 103c-1.1 1.5-2.4 2.9-3.4 4.4-0.3 0.5-0.6 1.1-0.9 1.8-0.4 1-0.1 1.2 0.6 0.5 0.4-0.4 0.9-0.9 1.3-1.4 2.9-3.6 5.4-7.5 8.8-10.6 4.7-4.4 9.7-8.4 14.7-12.5v-1.9c-7.7 5.8-15.3 11.8-21.1 19.7z"/>
<path d="m347.6 145.8c-0.3-0.1-0.7-0.2-1-0.2-0.6 0-1.2 0.8-1 1.4 0.1 0.4 0.4 0.7 0.8 1 0.7 0.4 5.3 1.7 5.7 0.7 0.3-1.3-3.7-2.6-4.5-2.9z"/>
<path d="m239.4 303.5c-5.1-2.1-10-5-15.8-5.3-0.7 0-1.4-0.4-2.1-0.5-3.3-0.5-6.6-0.9-9.9-1.3l-7.5-0.9c-0.8-0.1-1.6-0.4-2.4-0.3-5.6 0.8-11.1-0.5-16.7-0.7-1.5-0.1-3-0.9-4.5-0.9-1.8 0-3.4-0.4-4.9-1.2-2.9-1.3-5.8-2.6-8.6-4.2s-5.3-3.5-7.9-5.3c-0.4-0.3-0.8-0.6-1-0.9-1.3-1.7-2.5-3.4-3.8-5.2-0.3-0.5-0.6-1-0.8-1.6-1.2-3.8-2.3-7.7-3.5-11.5-0.2-0.6-0.5-1.3-0.5-1.9-0.1-3.6-1.4-7-2.3-10.5-0.3-1.2-1.1-1.9-2.2-2.5-1.7-0.9-3.3-1.8-4.9-2.7-0.6-0.4-1.3-1-1.9-0.3-0.4 0.4-0.3 1.3-0.2 2s0.2 1.4 0.4 2.1c0.2 1.1 1.3 4.6 2.5 7.9 1.3 3.8 2.7 7.6 4.1 11.4 0.9 2.4 2.1 4.8 3.4 7 1.1 1.9 2.8 3.4 3.9 5.5 3.1 5.7 8.2 9.7 12.7 14.2 2.1 2.1 4.9 3.6 7.5 5.3 4.9 3.3 10.3 5.4 15.7 7.7 1 0.4 2 0.7 3 0.9 2.9 0.6 5.9 1 8.8 1.5 4.8 0.8 9.6 1.6 14.4 2.2 2 0.3 4.1 0.2 6.1 0.2 2.6-0.1 5.2-0.5 7.7-0.3 2.7 0.2 5.3 0.2 7.9-0.2 1.2-0.2 2.3-0.4 3.2-0.9 1.7-0.8 2.7-2.6 2.8-3.2 0.1-0.7-0.1-2.4-0.9-3.8-0.3-0.8-0.9-1.4-1.8-1.8z"/>
<path d="m211.7 316.9c-0.5-0.1-1.1 0-1.6-0.1-2.9-0.9-5.3-0.2-7.2 2.4-1.6 2.2-1.6 2.8 0.3 4.7l0.2 0.2c0.1 0.1 0.4 0.2 0.6 0.3 0.2 0 1.5-0.5 2.9-1.1 0.8-0.4 1.7-0.8 2.5-1.3 1.2-0.7 2.3-1.8 3.2-2.9 1.1-1 0.5-2-0.9-2.2z"/>
<path d="m208.9 284.6c-0.2-0.2-0.5-0.4-0.7-0.5-0.4-0.2-1.6-0.5-2.5-0.2-0.5 0.2-1 0.5-1.3 1.1-0.5 1-0.4 1.9 0.4 2.7 0.3 0.3 0.6 0.7 1 1 1.4 1 2.7 2.1 4.2 3 0.8 0.5 1.7 0.9 2.5 1.1 0.5 0.1 1.3-0.2 1.7-0.6 0.6-0.5 0.3-1.1-0.1-1.8-1.2-2.4-3.4-4-5.2-5.8z"/>
<path d="m223.9 298.3c-3.3 0.3-6.6-1.1-9.8 0.6-0.3 0.2-0.8 0.1-1.2 0.1-1.6-0.2-3.2-0.3-4.8-0.6-1.8-0.3-3.3 0.3-4.4 1.7-2.4 2.9-2.4 2.8-5.4 0.5-1.6-1.2-3.3-2.5-5.4-2.3-3.2 0.2-6.3 0.6-9.5 1.1-1.8 0.3-2 0.9-0.9 2.4 2 2.9 8.6 5.8 12.1 5.3 0.7-0.1 1.4-0.3 2.1-0.5 0.6-0.1 1.3-0.3 1.9-0.4 1.4-0.4 2.5 0.1 3.3 1.3 1.4 2.2 3.4 3.5 6.1 3.8 0.7 0 1.4 0.3 2 0.1 1.2-0.4 2.3 0.1 3.2 0.7 1.9 1.4 3.8 1.1 5.8 0.2 1.3-0.6 2.9-0.9 4.3-1.2 1.3-0.2 2.8 0.3 3.9-0.9 0.1-0.1 0.6 0 0.9 0.1 2.5 0.9 4.6 0.1 6.4-1.6 1.5-1.4 1.6-2.3 0.3-3.9-0.9-1.6-9.2-6.6-10.9-6.5z" fill="#fff"/>
<path d="m172.5 292.3c-1.2-0.2-2.6-0.5-3.4 0.9-0.5 0.9 0.2 2.8 1.4 3.7 0.4 0.3 0.8 0.6 1.2 0.7 0.8 0.2 1.6 0.5 2.3 0.7 1.3 0.4 3.1 0.8 4 0.8 0.8 0 0.9-0.4 0.8-1-0.7-2.8-3.5-5.4-6.3-5.8z" fill="#fff"/>
<path d="m144.4 256.3c-0.5-0.1-1 0-1.3 0.2-0.2 0.2-0.5 0.8-0.6 1.4s0.1 1.6 0.5 2.4c0.2 0.5 0.5 0.9 0.8 1.3 0.9 0.9 1.9 0.6 2.2-0.6 0.2-0.8 0.3-1.6 0.2-2.4 0-1.4-1.4-2.2-1.8-2.3z" fill="#fff"/>
<path d="m240.6 302c-4-3.1-8.7-4.7-13.5-5.5-8.9-1.5-17.9-2.6-26.9-3.6-6.1-0.7-12.2-0.9-18.3-1.4-8.1-0.6-14.7-4.4-20.6-9.5-3.2-2.8-6.1-6.2-7.2-10.3-1.6-6.2-2.5-12.6-3.8-18.9-0.3-1.4-0.8-3.3-1.8-4-1.4-1-2.8-1.8-4.3-2.7-2.4-1.4-4.5-2.4-4.5-2.3-0.1 0.1-0.3 0.2-0.6 0.2s-0.3 0.3-0.1 0.5l0.4 0.4c2.3 1.2 4.6 2.3 6.9 3.5 2.2 1.1 3 2.8 3.1 5.1 0 1.9 0.3 3.8 0.6 5.7 0.6 3.9 1.4 7.8 2.1 11.7 0.1 0.6 0.4 1.1 0.6 1.7 1.7 3.5 3.7 6.9 6.5 9.7 5.3 5.4 11.6 9.4 19.1 10.8 3.4 0.6 6.9 1.1 10.3 1.2 11.5 0.2 22.8 1.9 34.1 3.3 6 0.8 11.8 2.5 17.2 5.5 0.3 0.2 0.7 0.3 1.1 0.4 0.6 0.1 0.8-0.1 0.4-0.6-0.2-0.4-0.5-0.6-0.8-0.9z"/>
<path d="m240.2 313.4h-0.6c-3.3 0.4-6.6 1-9.8 1.3-2.2 0.2-4.5 0.3-6.8 0.4-8.9 0.3-17.8-0.1-26.5-2.4-6.5-1.7-13-3.4-18.9-6.8-6.7-3.9-12.3-9.2-18.2-14.1-0.5-0.4-1-0.9-1.5-1.3-0.2-0.1-0.4-0.2-0.6-0.2-0.4 0-0.5 0.2-0.4 0.6 0.1 0.2 0.2 0.5 0.4 0.6 1.1 1 2.3 2 3.5 2.9 5.5 4.3 10.9 8.9 16.7 12.9 7 4.8 15.3 6.2 23.3 8.4 1.9 0.5 2.1 0.7 0.8 2.3-1.2 1.6-2.1 3.2-2.1 5.3 0 2.3 1.1 3.4 3.3 3.7 5.1 0.7 9.3-3.2 11.3-6.2 0.1-0.2 0.2-0.5 0.2-0.7 0-0.4-0.2-0.6-0.5-0.4-0.2 0.1-0.4 0.3-0.6 0.4-1.6 1.4-3 2.9-4.7 4.2-1.5 1.2-3.4 1.3-5.3 1.2-1.3-0.1-1.9-0.9-1.9-2.1-0.1-3.2 3.8-7 6.9-6.7 8.6 0.9 17.3 0.5 25.9-0.6 2-0.3 3.9-1.1 5.9-1.7 0.2-0.1 0.3-0.2 0.5-0.3 0.1-0.5 0-0.7-0.3-0.7z"/>
<path d="m150.3 280c-3.5-6-7-12.1-9-18.8-1.4-4.7-2.9-9.4-4.3-14.1-0.3-1-0.4-2.2-0.6-3.2-0.1-0.3-0.2-0.5-0.4-0.8-0.3-0.4-0.6-0.7-0.8-0.7s-0.3 0.3-0.3 0.7c0 0.2 0 0.4 0.1 0.6 0.5 1.9 1 3.8 1.4 5.7 0.2 1.1-0.1 2.4 0.2 3.5 2.7 9.5 6 18.8 11.6 27.2 1.6 2.4 3.2 4.7 4.9 7 0.1 0.2 0.4 0.3 0.6 0.3 0.4 0.1 0.6-0.1 0.6-0.5 0-0.2-0.1-0.4-0.2-0.6-1.2-2.1-2.5-4.2-3.8-6.3z"/>
<path d="m216.8 290.3c-1-1.4-2-2.9-3.1-4.1-1-1-2.1-1.9-3.4-2.7-2-1.3-4.9-1.6-6.1-0.9-0.6 0.4-1.2 0.8-1.6 1.7-1 2-0.3 4 1.1 5.6 0.6 0.7 1.3 1.4 2.2 1.8 0.2 0.1 2.3 0.4 2.1-0.1-0.2-0.7-0.8-1.2-1.5-1.7-1-0.7-2.2-2-2.4-2.7-0.1-0.5-0.2-1-0.1-1.4 0.1-1 0.8-1.9 1.8-2.1 0.8-0.2 1.7 0.1 2.4 0.5 3.4 1.6 5.1 4.4 7.8 6.8 0.1 0.1 0.3 0.2 0.6 0.3s0.5-0.1 0.5-0.4c-0.2-0.3-0.2-0.4-0.3-0.6z"/>
<path d="m206.4 305.3c-0.5-0.1-1-0.3-1.5-0.3-3.7-0.6-7.6-0.7-11.2-1.8-6.5-2-12.9-4.5-19.3-6.8-0.4-0.1-0.7-0.2-1.1-0.3-0.6-0.1-0.7 0.1-0.2 0.6 0.3 0.3 0.6 0.5 1 0.7 8.4 3.6 16.8 7.3 26.1 8.2 1.5 0.2 3 0.5 4.5 0.5 0.5 0 1.1 0 1.6-0.1 0.9-0.2 1-0.5 0.1-0.7z"/>
<path d="m243.6 305.7c-1 0.2-0.3 3.6-0.2 4.3 0 0.2 0.1 0.5 0.3 0.8 0.2 0.4 1 0.6 1.4 0.1 0.2-0.2 0.4-0.6 0.4-0.9 0-0.7-1-4.5-1.9-4.3z"/>
<path d="m284.9 234.2c-0.6-3.5-1.2-7-1.9-10.4-0.2-1.2-0.6-2.4-1.1-3.6-2.8-6.3-5.4-12.7-9.3-18.5-2-3-3.8-6.3-6.4-8.7-5.4-5.2-10.2-11.2-17-14.7-2.4-1.3-4.3-3.2-6.5-4.5-2.6-1.5-5.4-2.9-8.3-3.9-4.5-1.6-9-3.2-13.6-4.7-3.8-1.3-8-2.6-9.3-2.8-0.8-0.2-1.6-0.3-2.4-0.4s-1.9-0.2-2.4 0.3c-0.8 0.7 0 1.5 0.4 2.3 1.1 1.9 2.2 3.8 3.2 5.7 0.7 1.3 1.6 2.2 3 2.5 4.1 1 8.1 2.5 12.4 2.6 0.8 0 1.5 0.3 2.3 0.5 4.6 1.3 9.1 2.6 13.7 3.9 0.7 0.2 1.3 0.5 1.9 0.9 2.1 1.4 4.1 2.9 6.2 4.4 0.4 0.3 0.8 0.8 1.1 1.2 2.2 3.1 4.5 6.1 6.4 9.3s3.5 6.7 5.1 10.1c0.9 1.8 1.4 3.7 1.5 5.8 0 1.8 1 3.5 1.1 5.3 0.4 6.6 2 13 1.1 19.7-0.1 0.9 0.3 1.8 0.4 2.8 0.4 2.9 0.7 5.9 1.1 8.8 0.5 3.9 1.1 7.8 1.7 11.7 0.1 0.8 0.5 1.7 0.6 2.5 0.4 6.8 4 12.5 6.5 18.5 0.5 1.1 1.2 1.9 2.2 2.4 1.6 0.9 3.7 1.2 4.5 1 0.8-0.1 2.9-1.4 3.8-3.4 0.5-1.2 0.8-2.5 1-3.9 0.4-3.1 0.4-6.2 0.1-9.4-0.3-3 0.2-6.1 0.2-9.2 0-2.4 0.1-4.9-0.3-7.3-1-5.5-2-11.1-3-16.8z"/>
<path d="m299.8 237.9c-2.3-2.3-3-2.2-5.6-0.3-3 2.2-3.8 5-2.7 8.5 0.2 0.6 0.1 1.2 0.2 1.8 0.2 1.6 1.4 2.3 2.6 1.2 1.3-1.1 2.5-2.4 3.4-3.9 0.6-0.9 1-1.9 1.5-2.9 0.7-1.7 1.3-3.2 1.2-3.5 0-0.3-0.2-0.6-0.3-0.7-0.2-0.1-0.2-0.1-0.3-0.2z"/>
<path d="m261.7 246.2c-1.1-1.7-2.4-3.3-3.6-4.9-0.3-0.4-0.8-0.8-1.2-1.1-1-0.9-2.1-1.1-3.2-0.4-0.7 0.4-1.1 0.9-1.3 1.5-0.4 1.1 0 2.4 0.3 2.9 0.2 0.3 0.3 0.6 0.6 0.8 2.2 2.2 4.1 4.7 7 6.2 0.8 0.4 1.5 0.8 2.1 0.1 0.4-0.5 0.8-1.4 0.6-2-0.2-1.2-0.7-2.2-1.3-3.1z"/>
<path d="m285.1 246.1c0.2-0.7-0.1-1.5-0.1-2.3-0.4-3.1-1.9-5.5-4.6-7.1-1.4-0.9-2-2.1-1.6-3.8 0.2-0.8 0.3-1.5 0.5-2.3s0.4-1.7 0.5-2.5c0.5-4.1-3.1-11.9-6.5-14.3-1.8-1.2-2.6-1-2.8 1.1-0.5 3.7-1 7.5-1.2 11.2-0.1 2.5 1.4 4.5 2.9 6.3 2.8 3.5 2.8 3.5-0.5 6.3-1.6 1.4-2.3 3.1-1.9 5.3 0.4 1.9 0.5 3.7 0.8 5.6 0.1 0.5 0.2 1 0 1.4-2 3.8-0.3 7.7-0.6 11.6-0.1 2.1 5.9 11.7 7.7 13 1.9 1.5 3 1.4 4.6-0.5 2-2.2 2.9-4.7 1.8-7.6-0.1-0.3-0.3-0.9-0.1-1.1 1.4-1.3 0.8-3.1 1-4.6 0.3-1.7 0.6-3.6 1.3-5.1 1.1-2.4 1.4-4.6-0.3-6.8-0.8-1.2-1.3-2.4-0.9-3.8z" fill="#fff"/>
<path d="m268.2 200.8c-0.2-0.5-0.5-1-0.8-1.4-1.1-1.3-3.3-2.2-4.4-1.5-1.6 0.9-1.3 2.5-1.1 4 0.6 3.4 3.7 6.6 6.9 7.3 0.8 0.2 1.2 0 1.2-1 0-1.1-0.5-3.1-1-4.7-0.2-0.9-0.5-1.8-0.8-2.7z" fill="#fff"/>
<path d="m223.6 167.5c-0.9-0.4-2.2-0.7-2.8-0.6-0.7 0.1-1.4 0.4-1.6 0.7s-0.4 1-0.3 1.5 1.1 2.1 2.7 2.3c0.9 0.1 1.9-0.1 2.9-0.3 1.5-0.4 1.8-1.6 0.7-2.6-0.5-0.4-1-0.7-1.6-1z" fill="#fff"/>
<path d="m275.8 281.5c-3.7-6.3-5.8-13.1-6.8-20.2-1.9-13.4-4-26.7-4.5-40.3-0.1-4.1-0.8-8.1-1.6-12.1-1.8-8.9-6.5-16.2-13-22.5-3.4-3.2-7.4-5.6-11.6-7.5-0.6-0.3-1.3-0.6-2-0.7-4.6-0.8-9.2-1.6-13.9-2.3-2.2-0.3-4.5-0.6-6.8-0.6-2.8 0-4.9-1-6.1-3.5-1.4-2.7-2.8-5.5-4.2-8.2-0.1-0.2-0.3-0.3-0.4-0.5-0.3-0.2-0.5-0.2-0.6 0.1 0 0.3-0.2 0.6-0.2 0.7-0.1 0.1 1.1 2.5 2.8 5.3 1 1.7 2 3.4 3.2 5 0.9 1.2 3.1 1.8 4.8 2.1 7.5 1.5 15.1 2.4 22.4 4.2 4.9 1.2 8.9 4.6 12.3 8.4 6.2 6.9 10.8 14.7 11.6 24.2 0.6 7.2 1 14.4 1.9 21.6 1.3 10.6 2.7 21.2 4.6 31.7 1 5.7 3 11.3 6.8 15.9 0.3 0.4 0.6 0.7 1 0.9 0.6 0.5 0.9 0.3 0.7-0.5-0.1-0.4-0.2-0.8-0.4-1.2z"/>
<path d="m298.8 233.4c-2.4 0-4.4 1.1-6.2 2.5-1.8 1.5-2.1 1.3-2.7-1-2.7-9.4-4.4-19.3-10.3-27.5-4.8-6.7-10.3-13-15.5-19.5-1.1-1.4-2.3-2.8-3.5-4.1-0.2-0.2-0.4-0.3-0.7-0.4-0.4-0.1-0.7 0.1-0.7 0.5 0 0.3 0.1 0.5 0.2 0.7 0.4 0.7 1 1.2 1.5 1.8 5.9 6.9 12.3 13.5 17 21.3 4.1 6.9 6.2 14.6 8.4 22.2 2.9 10.2 3.4 20.7 3.2 31.3 0 2.7-0.1 5.4-0.3 8-0.4 3.9-0.9 7.8-1.4 11.7v0.7c0 0.4 0.3 0.4 0.6 0.2 0.2-0.2 0.3-0.4 0.4-0.6 0.7-2.3 1.7-4.6 2-7 1.2-10.2 1.5-20.4 0.3-30.6-0.4-3.7 4-8.3 7.8-8.2 1.5 0 2.4 0.7 2.5 2.2 0.3 2.3 0.1 4.5-1.3 6.3-1.5 2-3.3 3.7-4.9 5.6-0.2 0.2-0.3 0.4-0.5 0.7-0.2 0.4 0 0.7 0.5 0.6 0.3 0 0.6-0.1 0.9-0.2 3.6-2.3 8.1-7.4 7.1-13.4-0.3-2.6-1.7-3.8-4.4-3.8z"/>
<path d="m255.4 179.1c-2.7-2-5.5-3.9-8.3-5.7-9.9-6.5-21-10.2-32.3-13.3-1.3-0.4-2.8 0-4.2-0.2-2.3-0.4-4.5-1.1-6.8-1.6-0.2-0.1-0.5-0.1-0.7-0.1-0.4 0-0.8 0.2-0.8 0.3 0 0.2 0.3 0.6 0.8 0.9 0.3 0.2 0.6 0.4 1 0.4 1.3 0.3 2.6 0.3 3.8 0.7 5.6 1.6 11.1 3.3 16.7 4.9 8 2.3 15.2 6.3 22.4 10.3 2.5 1.4 5 2.9 7.5 4.4 0.2 0.1 0.5 0.2 0.8 0.2 0.4 0.1 0.7-0.2 0.5-0.7-0.1-0.1-0.2-0.4-0.4-0.5z"/>
<path d="m259.5 238.7c-1.9-1.6-4.3-2.4-6.7-1.2-1 0.5-1.5 1.2-1.9 2-0.7 1.4-0.3 4.8 1.2 7.2 0.9 1.5 2 2.8 3.3 4 1.5 1.4 3.2 2.5 4.9 3.7 0.2 0.1 0.4 0.2 0.6 0.2 0.3 0.1 0.5-0.2 0.4-0.6-0.1-0.2-0.2-0.5-0.3-0.6-2.9-3.1-6.2-5.1-8.2-9.1-0.5-0.9-0.9-1.9-0.6-2.9 0.2-1.1 1.3-2 2.4-2.2 0.6-0.1 1.2 0 1.7 0.1 0.9 0.3 2.4 1.6 3.3 2.9 0.6 0.8 1.2 1.5 2.1 1.7 0.6 0.2 0.1-2.3 0.1-2.5-0.5-1.1-1.4-2-2.3-2.7z"/>
<path d="m267.8 203.7c-0.2-0.4-0.5-0.8-0.8-1.2-0.5-0.6-0.9-0.5-0.7 0.3 0.1 0.5 0.2 0.9 0.4 1.3 2.8 7.6 5.9 15 8.3 22.7 1.3 4.2 1.6 8.8 2.3 13.2 0.1 0.6 0.3 1.2 0.4 1.7 0.3 1 0.6 0.9 0.8-0.2 0.1-0.6 0.1-1.3 0.1-1.9-0.1-1.8-0.5-3.6-0.7-5.4-1.2-10.7-5.7-20.6-10.1-30.5z"/>
<path d="m284.9 285.8c-0.3-0.2-0.7-0.3-1-0.3-0.8-0.1-4.9-0.9-5.1 0.3-0.2 1.1 4.3 2.1 5.1 2.1 0.4 0 0.8-0.2 1.1-0.4 0.6-0.5 0.4-1.5-0.1-1.7z"/>
<path d="m369.5 298.6c-0.6-0.4-2.3-0.9-3.8-0.8-0.9 0.1-1.8 0.4-2.5 1.1-4.1 3.7-8.8 6.9-11.6 12-0.3 0.6-0.9 1.1-1.3 1.7-1.8 2.8-3.6 5.5-5.4 8.3-1.4 2.1-2.7 4.3-4 6.4-0.4 0.7-1.1 1.3-1.3 2-1.6 5.4-5.2 9.8-7.8 14.7-0.7 1.3-2.1 2.3-2.7 3.7-0.8 1.6-1.9 2.9-3.2 4-2.5 2-4.9 4.1-7.5 5.9s-5.5 3.3-8.2 4.9c-0.4 0.2-0.8 0.4-1.3 0.5-2.1 0.4-4.2 0.8-6.3 1.2-0.6 0.1-1.2 0.1-1.8 0-4-0.6-7.9-1.2-11.9-1.8-0.7-0.1-1.3-0.1-1.9-0.4-3.3-1.5-6.9-1.7-10.5-2.4-1.2-0.2-2.2 0.2-3.2 0.9l-4.5 3.3c-0.6 0.4-1.5 0.8-1.1 1.6 0.2 0.5 1.1 0.8 1.7 1 0.7 0.2 1.3 0.4 2 0.6 1.1 0.3 4.8 0.8 8.2 1.1 4 0.4 8.1 0.8 12.1 1.2 2.6 0.2 5.2 0.2 7.8-0.1 2.2-0.2 4.3-1 6.6-1.2 6.5-0.3 12.3-3.2 18.3-5.3 2.8-1 5.4-2.9 8-4.5 5-3 9.3-7 13.7-10.9 0.8-0.7 1.5-1.5 2.1-2.3 1.8-2.4 3.5-4.9 5.2-7.3 2.8-4 5.5-8 8.2-12 1.1-1.7 1.9-3.6 2.8-5.5 1.1-2.4 1.8-4.9 3.1-7.1 1.3-2.3 2.4-4.7 3.2-7.2 0.4-1.1 0.6-2.2 0.6-3.3-0.1-1.9-1.3-3.6-1.8-4z"/>
<path d="m365.8 329.6c-0.6-1.2-1.7-1.2-2.4 0-0.3 0.4-0.4 1-0.8 1.4-2.1 2.3-2.5 4.7-0.9 7.5 1.3 2.4 1.9 2.7 4.4 1.7 0.1 0 0.2-0.1 0.3-0.1 0.2 0 0.4-0.2 0.5-0.4s0.3-1.6 0.3-3.1c0-0.9 0-1.9-0.1-2.8-0.2-1.4-0.7-2.9-1.3-4.2z"/>
<path d="m340.5 316c-2.7 0.1-5.1 1.4-7.5 2.3-0.3 0.1-0.5 0.3-0.7 0.4-0.4 0.3-1.1 1.2-1.2 2.1-0.1 0.6 0.1 1.1 0.4 1.6 0.7 0.9 1.6 1.1 2.6 0.8 0.4-0.1 0.9-0.3 1.3-0.5 1.5-0.8 3-1.6 4.5-2.5 0.8-0.5 1.5-1.1 2.1-1.8 0.3-0.4 0.4-1.2 0.2-1.8-0.3-0.6-1-0.6-1.7-0.6z"/>
<path d="m362.3 303.3c-1.8 0.4-9.9 5.7-10.5 7.3-1.2 3.1-3.9 5.5-3.6 9.1 0 0.4-0.2 0.8-0.5 1.1-0.8 1.4-1.6 2.7-2.6 4-1.1 1.5-1.2 3.1-0.4 4.7 1.5 3.4 1.5 3.4-1.8 5.1-1.8 0.9-3.7 1.9-4.4 3.9-1.2 3-2.1 6-3.1 9.1-0.5 1.7 0 2.2 1.8 1.8 3.5-0.6 9-5.3 10-8.7 0.2-0.7 0.3-1.4 0.5-2.1 0.1-0.6 0.3-1.3 0.5-1.9 0.3-1.5 1.2-2.2 2.6-2.4 2.6-0.3 4.6-1.6 6-3.9 0.3-0.6 0.8-1.1 0.9-1.7 0.2-1.3 1-2 2-2.5 2.1-1.1 2.6-2.9 2.6-5.2 0-1.5 0.4-3 0.8-4.4 0.3-1.3 1.5-2.4 0.8-3.9-0.1-0.2 0.2-0.6 0.5-0.8 1.9-1.9 2-4.1 1.3-6.5-0.6-2.1-1.4-2.5-3.4-2.1z" fill="#fff"/>
<path d="m332.2 351.3c-2.7-0.6-6.3 0.8-7.9 3.2-0.7 1-1.5 2.1-0.6 3.4 0.6 0.9 2.6 1 3.9 0.4 0.4-0.2 0.8-0.5 1.1-0.8 0.6-0.6 1.1-1.2 1.6-1.8 0.9-1 2.1-2.4 2.4-3.2 0.4-0.8 0.1-1-0.5-1.2z" fill="#fff"/>
<path d="m284.6 364.8c-0.7-0.5-1.3-1-2.1-1.3-1.3-0.4-2.6 0.4-2.9 0.8s-0.4 1-0.3 1.3 0.5 0.8 1 1.1 1.5 0.6 2.4 0.6c0.5 0 1-0.1 1.5-0.2 1.3-0.4 1.4-1.5 0.4-2.3z" fill="#fff"/>
<path d="m363.4 296.7c-0.4 0.1-0.7 0.2-1.1 0.4-4.5 2.2-8 5.8-10.8 9.8-5.2 7.4-10 15-14.8 22.7-3.2 5.2-6.1 10.6-9.1 15.9-4 7-10.3 11.4-17.5 14.5-3.9 1.7-8.2 2.9-12.4 2.1-6.3-1.2-12.5-3.2-18.7-4.7-1.4-0.3-3.3-0.7-4.4-0.1-1.5 0.8-2.9 1.7-4.3 2.7-2.3 1.6-4.1 3-4 3.1 0 0.1 0 0.3-0.1 0.6-0.1 0.2 0.1 0.4 0.4 0.3 0.2-0.1 0.4-0.1 0.5-0.2 2.1-1.6 4.1-3.2 6.1-4.8 1.9-1.5 3.8-1.5 6-0.6 1.8 0.8 3.6 1.4 5.4 1.9 3.8 1.1 7.6 2.1 11.5 3.1 0.6 0.1 1.2 0.2 1.8 0.2 3.9 0 7.8-0.4 11.6-1.7 7.2-2.5 13.4-6.4 17.9-12.7 2-2.8 4-5.7 5.5-8.8 5.1-10.3 11.5-19.8 17.7-29.4 3.3-5.1 7.3-9.6 12.3-13.1 0.3-0.2 0.6-0.5 0.8-0.8 0.5-0.2 0.4-0.5-0.3-0.4z"/>
<path d="m372.4 302.4c-0.1 0.2-0.2 0.3-0.2 0.5-1 3.2-1.9 6.3-3 9.5-0.7 2.1-1.7 4.2-2.6 6.3-3.6 8.2-7.7 16.1-13.5 22.9-4.4 5.1-8.7 10.3-14.3 14.1-6.4 4.4-13.6 7.2-20.6 10.4-0.6 0.3-1.3 0.5-1.8 0.8-0.2 0.1-0.3 0.3-0.4 0.5-0.2 0.3 0 0.6 0.4 0.6 0.3 0 0.5 0 0.7-0.1 1.4-0.6 2.8-1.3 4.1-2 6.3-3.1 12.7-6 18.8-9.5 7.4-4.2 12.2-11.2 17.6-17.5 1.3-1.5 1.5-1.6 2.4 0.2s2 3.3 3.8 4.1c2.1 0.9 3.6 0.5 4.8-1.4 2.8-4.3 1.2-9.8-0.8-12.8-0.1-0.2-0.3-0.3-0.6-0.5-0.4-0.2-0.6-0.1-0.6 0.3 0 0.2 0.1 0.5 0.1 0.7 0.6 2 1.4 4 1.8 6.1 0.4 1.9-0.3 3.7-1.3 5.3-0.7 1.1-1.6 1.3-2.7 0.8-2.9-1.3-4.7-6.4-3.1-9.1 4.5-7.4 7.9-15.4 10.6-23.6 0.6-1.9 0.7-4 1-6.1 0-0.2 0-0.4-0.1-0.6s-0.3-0.2-0.5 0.1z"/>
<path d="m311.6 368.6c-0.2-0.1-0.4-0.1-0.7-0.1-2.4 0.2-4.9 0.5-7.3 0.7-6.9 0.6-13.9 1.1-20.8 0-4.8-0.8-9.7-1.4-14.6-2.2-1.1-0.2-2.1-0.6-3.2-0.8-0.3-0.1-0.6 0-0.9 0-0.5 0.1-0.9 0.2-1 0.4 0 0.2 0.2 0.4 0.5 0.5 0.2 0.1 0.4 0.2 0.6 0.2 1.9 0.4 3.9 0.7 5.8 1.2 1.1 0.3 2.1 1.1 3.3 1.3 9.8 1.6 19.6 2.7 29.5 1.2 2.8-0.4 5.6-0.9 8.4-1.4 0.2 0 0.4-0.2 0.6-0.4 0.3-0.2 0.2-0.5-0.2-0.6z"/>
<path d="m342.1 313.7c-0.2 0-0.4-0.1-0.5 0-1.7 0.3-3.4 0.5-5.1 1.1-1.4 0.5-2.7 1.1-3.9 1.9-2 1.3-3.5 3.8-3.4 5.1 0 0.7 0.2 1.5 0.8 2.2 1.4 1.8 3.5 2 5.6 1.4 0.9-0.2 1.9-0.6 2.6-1.2 0.1-0.1 1.4-1.9 0.8-2-0.7-0.1-1.5 0.2-2.2 0.6-1.1 0.6-2.7 1.1-3.5 1-0.5-0.1-1-0.2-1.4-0.5-0.8-0.5-1.3-1.6-1.1-2.5 0.2-0.8 0.8-1.5 1.5-2 2.9-2.3 6.2-2.7 9.5-4.1 0.2-0.1 0.3-0.2 0.5-0.4 0.1-0.3 0.1-0.6-0.2-0.6z"/>
<path d="m350.6 329.4c-0.3 0.4-0.7 0.8-0.9 1.2-2.1 3.1-3.9 6.5-6.4 9.3-4.6 5-9.6 9.7-14.4 14.5-0.3 0.3-0.5 0.6-0.8 0.9-0.4 0.5-0.2 0.7 0.4 0.5 0.4-0.2 0.8-0.3 1.1-0.6 6.8-6.1 13.8-12.1 18.6-20 0.8-1.3 1.7-2.5 2.4-3.9l0.6-1.5c0.2-0.9-0.1-1-0.6-0.4z"/>
<path d="m371.6 296.2c-0.6-0.3-4.5-1.1-4.7-0.2-0.3 1 3.1 1.9 3.8 2 0.2 0.1 0.6 0.1 0.9 0.1 0.5 0 0.9-0.7 0.7-1.2-0.1-0.3-0.3-0.6-0.7-0.7z"/>
</svg>